<?xml version="1.0" encoding="UTF-8"?>
<svg xmlns="http://www.w3.org/2000/svg" xmlns:xlink="http://www.w3.org/1999/xlink" width="30px" height="30px" viewBox="0 0 30 30" version="1.1">
<g id="surface1">
<path style=" stroke:none;fill-rule:nonzero;fill:rgb(0%,0%,0%);fill-opacity:1;" d="M 22 0.0625 C 21.148438 0.179688 20.046875 0.664062 19.296875 1.234375 C 18.289062 2.015625 17.472656 3.296875 17.191406 4.554688 L 17.097656 4.980469 L 1.957031 4.980469 L 1.617188 5.679688 C 1.421875 6.058594 1.289062 6.390625 1.304688 6.421875 C 1.324219 6.453125 3.6875 9.46875 6.554688 13.125 L 11.777344 19.773438 L 11.777344 23.398438 C 11.777344 25.980469 11.757812 27.101562 11.707031 27.292969 C 11.617188 27.640625 11.210938 28.066406 10.863281 28.171875 C 10.695312 28.21875 9.972656 28.242188 8.355469 28.242188 L 6.09375 28.242188 L 6.09375 30 L 19.160156 30 L 19.160156 28.242188 L 16.921875 28.242188 C 15.523438 28.242188 14.59375 28.21875 14.453125 28.179688 C 14.167969 28.101562 13.78125 27.75 13.648438 27.453125 C 13.546875 27.234375 13.535156 26.96875 13.535156 23.492188 L 13.535156 19.765625 L 16.910156 15.460938 C 19.632812 11.988281 20.308594 11.164062 20.40625 11.171875 C 20.476562 11.179688 20.757812 11.261719 21.035156 11.359375 C 21.734375 11.609375 22.277344 11.679688 23.171875 11.640625 C 23.765625 11.617188 24.054688 11.578125 24.460938 11.460938 C 26.484375 10.863281 27.890625 9.453125 28.515625 7.398438 C 28.65625 6.925781 28.675781 6.804688 28.675781 5.859375 C 28.675781 4.664062 28.59375 4.257812 28.15625 3.351562 C 27.832031 2.679688 27.625 2.382812 27.132812 1.863281 C 25.796875 0.4375 23.945312 -0.203125 22 0.0625 Z M 24.109375 1.957031 C 25.488281 2.390625 26.554688 3.554688 26.871094 4.96875 C 27.011719 5.601562 26.964844 6.503906 26.753906 7.117188 C 26.195312 8.742188 24.78125 9.8125 23.078125 9.890625 C 22.453125 9.914062 21.609375 9.796875 21.53125 9.664062 C 21.515625 9.632812 22.066406 8.890625 22.757812 8.003906 L 24.023438 6.398438 L 23.6875 5.6875 L 23.359375 4.980469 L 18.914062 4.980469 L 18.953125 4.789062 C 19.078125 4.230469 19.554688 3.429688 20.054688 2.929688 C 20.402344 2.589844 21.007812 2.195312 21.445312 2.027344 C 22.210938 1.722656 23.28125 1.695312 24.109375 1.957031 Z M 21.316406 6.984375 C 21.203125 7.125 20.648438 7.835938 20.074219 8.566406 C 19.5 9.304688 19.015625 9.902344 18.992188 9.902344 C 18.96875 9.902344 18.804688 9.828125 18.625 9.734375 C 17.894531 9.335938 16.875 9.242188 16.054688 9.484375 C 15.398438 9.6875 14.914062 10 14.285156 10.632812 C 13.5625 11.375 13.203125 11.566406 12.585938 11.53125 C 11.976562 11.5 11.726562 11.355469 10.976562 10.609375 C 10.441406 10.085938 10.253906 9.9375 9.84375 9.734375 C 8.789062 9.210938 7.699219 9.210938 6.667969 9.734375 C 6.476562 9.828125 6.296875 9.890625 6.273438 9.875 C 6.242188 9.855469 4.414062 7.546875 3.851562 6.808594 C 3.804688 6.757812 5.578125 6.738281 12.65625 6.738281 L 21.515625 6.738281 Z M 9 11.285156 C 9.195312 11.375 9.515625 11.640625 9.9375 12.058594 C 10.640625 12.757812 11.09375 13.03125 11.835938 13.21875 C 12.398438 13.359375 13.320312 13.304688 13.851562 13.101562 C 14.429688 12.878906 14.988281 12.484375 15.46875 11.953125 C 16.007812 11.355469 16.445312 11.117188 17.003906 11.121094 C 17.398438 11.121094 17.84375 11.25 17.84375 11.355469 C 17.84375 11.449219 12.695312 17.992188 12.640625 17.96875 C 12.609375 17.964844 11.421875 16.464844 9.992188 14.648438 L 7.394531 11.335938 L 7.539062 11.257812 C 7.921875 11.054688 8.539062 11.070312 9 11.285156 Z M 9 11.285156 "/>
</g>
</svg>
